<?xml version="1.0" encoding="UTF-8"?><svg id="Layer_2" xmlns="http://www.w3.org/2000/svg" viewBox="0 0 140.33 140.33"><defs><style>.cls-1{fill:#edba1d;}.cls-2{fill:#fff;}.cls-3{fill:#221536;}.cls-4{fill:none;}</style></defs><g id="orbital-btc"><g id="Logo"><circle class="cls-3" cx="70.17" cy="70.17" r="70.17"/><g><path class="cls-4" d="M53.04,94.74c.88-6.33,5.81-10.17,7.33-11.36,3.13-2.44,6.91-3.51,14.46-5.65,6.24-1.77,10.12-2.28,13.53-5.85,1.32-1.38,2.14-2.76,2.63-3.74-6.81,2.41-12.39,3.65-16.26,4.34-4.85,.87-9.65,2-14.51,2.86-1.81,.32-3.91,.69-6.45,1.89-1.54,.73-4.43,2.14-6.78,5.14-3.13,4.01-3.37,8.44-3.45,10.38-.25,6.27,2.53,10.88,3.71,12.61,4.03,2.63,8.54,4.58,13.36,5.7-.55-.43-8.87-7.13-7.59-16.33Z"/><path class="cls-4" d="M40.45,97.16c-1.36-2.34-2.62-4.52-3.05-7.64-.83-6.06,2.16-10.87,3.08-12.23,1.21-1.78,3.82-4.94,11.21-7.95,10.38-4.22,13.53-1.35,29.1-5.05,2.02-.48,8.67-2.12,15-6.1,2.81-1.77,4.99-3.64,6.84-6.01,1.4-1.8,2.31-3.49,2.88-4.72-1.58-2.45-3.41-4.73-5.45-6.8,.19,1.19,.33,3.28-.66,5.42-.84,1.83-2.25,3.15-5.02,4.77-5.62,3.3-10.53,4.22-10.53,4.22-11.27,2.11-16.39,2.11-23.13,3.36-8.31,1.54-16.15,2.98-22.42,8.99-5.26,5.04-7.32,11.27-8.2,15.27,2.94,9.4,9.09,17.38,17.17,22.65-1.87-1.62-4.54-4.28-6.81-8.2Z"/><path class="cls-4" d="M85.6,34.76c.52,2.18-.37,4.06-.71,4.75-1.72,3.51-5.37,5.15-15.58,8.25-3.72,1.13-8.46,2.5-14.01,3.94,10.9,.17,19.64-1.01,25.82-2.21,6.9-1.34,11.36-2.85,13.33-6.7,1.15-2.25,1.09-4.61,.85-6.27-4.67-3.49-10.09-6.04-15.97-7.34,.69,.2,5.34,1.69,6.27,5.58Z"/><path class="cls-1" d="M38.29,67.44c6.27-6.01,14.11-7.46,22.42-8.99,6.74-1.24,11.86-1.24,23.13-3.36,0,0,4.92-.92,10.53-4.22,2.77-1.62,4.18-2.95,5.02-4.77,.99-2.14,.85-4.24,.66-5.42-1.48-1.5-3.07-2.89-4.76-4.15,.24,1.66,.3,4.02-.85,6.27-1.97,3.85-6.43,5.36-13.33,6.7-6.18,1.2-14.93,2.38-25.82,2.21,5.56-1.44,10.29-2.81,14.01-3.94,10.21-3.11,13.86-4.74,15.58-8.25,.34-.69,1.23-2.57,.71-4.75-.93-3.89-5.59-5.38-6.27-5.58-2.95-.66-6.01-1-9.16-1-23.19,0-41.99,18.8-41.99,41.99,0,4.37,.67,8.58,1.91,12.55,.89-4.01,2.94-10.23,8.2-15.27Z"/><path class="cls-1" d="M105.5,47.48c-.57,1.23-1.48,2.92-2.88,4.72-1.85,2.37-4.03,4.24-6.84,6.01-6.33,3.98-12.97,5.62-15,6.1-15.57,3.7-18.72,.83-29.1,5.05-7.39,3-10,6.16-11.21,7.95-.92,1.35-3.91,6.17-3.08,12.23,.43,3.12,1.69,5.3,3.05,7.64,2.27,3.92,4.94,6.58,6.81,8.2h.01c-1.18-1.73-3.96-6.34-3.71-12.6,.08-1.94,.32-6.36,3.45-10.38,2.34-3,5.24-4.41,6.78-5.14,2.55-1.21,4.64-1.57,6.45-1.89,4.85-.87,9.65-2,14.51-2.86,3.87-.69,9.45-1.94,16.26-4.34-.5,.98-1.32,2.36-2.63,3.74-3.42,3.58-7.29,4.08-13.53,5.85-7.55,2.14-11.33,3.21-14.46,5.65-1.53,1.19-6.45,5.02-7.33,11.36-1.28,9.2,7.04,15.91,7.59,16.33,3.06,.71,6.26,1.09,9.54,1.09,23.19,0,41.99-18.8,41.99-41.99,0-8.36-2.44-16.15-6.65-22.69Z"/></g><g><g><path class="cls-2" d="M57.83,56.9l-5.09-3-5.07,3v4.76c1.64-.62,3.33-1.13,5.07-1.56v-.2l5.09-3Z"/><path class="cls-2" d="M65.1,56.9l1.19,.71c2.55-.32,5.19-.59,8.41-1.03l-4.54-2.67-5.07,3Z"/></g><g><path class="cls-2" d="M61.47,85.5l-2.15-1.27c-1.02,.86-2.38,2.16-3.59,3.89l5.74,3.37v-6Z"/><path class="cls-2" d="M52.76,77.74l-.02-7.6-1.22-.72c-1.47,.6-2.74,1.21-3.85,1.81v10.37c1.74-1.95,3.66-3.12,5.08-3.86Z"/><path class="cls-2" d="M61.27,75.14l-4.87-2.88v3.95c1.42-.44,2.68-.67,3.83-.87,.35-.06,.69-.13,1.04-.2Z"/></g><polygon class="cls-2" points="87.59 59.9 87.59 65.87 92.69 62.87 92.69 56.9 87.59 53.9 82.53 56.9 87.59 59.9"/><polygon class="cls-2" points="65.1 87.65 65.1 93.61 70.17 96.61 75.26 93.61 75.26 87.65 70.17 90.64 65.1 87.65"/><polygon class="cls-2" points="87.62 70.14 87.59 80.38 78.9 85.5 78.9 91.49 92.69 83.4 92.69 67.14 87.62 70.14"/><polygon class="cls-2" points="83.96 72.26 78.89 75.26 78.89 81.23 83.96 78.26 83.96 72.26"/><g><path class="cls-4" d="M67.28,51.34c1.74-.13,3.4-.3,4.97-.48l-2.08-1.23-2.89,1.71Z"/><path class="cls-4" d="M55.29,51.7c.41,0,.82,0,1.23,.01l1.02-.6c-.73,.19-1.48,.39-2.24,.59Z"/><path class="cls-2" d="M78.89,54.78l5.07-3-3.64-2.14c-2.35,.44-5.05,.87-8.07,1.22l6.64,3.92Z"/><path class="cls-2" d="M57.53,51.11c4.59-1.22,8.56-2.38,11.77-3.35,1.91-.58,3.6-1.11,5.08-1.61l-4.22-2.48-12.63,7.45Z"/><path class="cls-2" d="M56.52,51.71l-.12,.07,5.07,3,5.81-3.44c-3.29,.25-6.88,.39-10.76,.37Z"/></g><polygon class="cls-2" points="83.96 62.02 83.96 62.02 83.98 62.02 78.89 59.02 70.16 64.17 61.49 59.02 56.4 62.02 56.4 68.02 65.13 73.14 65.13 83.4 70.2 86.37 75.26 83.4 75.26 73.14 83.99 68.02 83.96 62.02"/></g></g></g></svg>