<svg width="260" height="260" viewBox="0 0 260 260" fill="none" xmlns="http://www.w3.org/2000/svg">
<path d="M130 260C201.797 260 260 201.797 260 130C260 58.203 201.797 0 130 0C58.203 0 0 58.203 0 130C0 201.797 58.203 260 130 260Z" fill="#F0B90B"/>
<path d="M82.3657 68.7827L130.407 41.5674L178.449 68.7827L160.787 78.8368L130.407 61.6755L100.028 78.8368L82.3657 68.7827ZM178.449 103.105L160.787 93.0512L130.407 110.213L100.028 93.0512L82.3657 103.105V123.213L112.745 140.376V174.698L130.407 184.751L148.069 174.698V140.376L178.449 123.213V103.105ZM178.449 157.536V137.428L160.787 147.483V167.591L178.449 157.536ZM190.99 164.643L160.61 181.806V201.914L208.652 174.698V120.268L190.99 130.321V164.643ZM173.328 85.944L190.99 95.9981V116.106L208.652 106.053V85.944L190.99 75.89L173.328 85.944ZM112.745 189.084V209.193L130.407 219.248L148.069 209.193V189.084L130.407 199.139L112.745 189.084ZM82.3657 157.536L100.028 167.591V147.483L82.3657 137.428V157.536ZM112.745 85.944L130.407 95.9981L148.069 85.944L130.407 75.89L112.745 85.944ZM69.8254 95.9981L87.4878 85.944L69.8254 75.89L52.163 85.944V106.053L69.8254 116.106V95.9981ZM69.8254 130.321L52.163 120.268V174.698L100.204 201.914V181.806L69.8254 164.643V130.321Z" fill="white"/>
</svg>
