<?xml version="1.0" encoding="utf-8"?>
<!-- Generator: Adobe Illustrator 27.0.0, SVG Export Plug-In . SVG Version: 6.00 Build 0)  -->
<svg version="1.1" id="LOGO" xmlns="http://www.w3.org/2000/svg" xmlns:xlink="http://www.w3.org/1999/xlink" x="0px" y="0px"
	 viewBox="0 0 90 90" style="enable-background:new 0 0 90 90;" xml:space="preserve">
<style type="text/css">
	.st0{fill:#282D2D;}
	.st1{fill:#14C846;}
	.st2{fill:#A0E6AA;}
</style>
<g>
	<path class="st0" d="M45,17.5c-15.16,0-27.5,12.34-27.5,27.5c0,15.16,12.34,27.5,27.5,27.5S72.5,60.16,72.5,45
		C72.5,29.84,60.16,17.5,45,17.5z M40.16,63.85l-2.77-7.62l-8.05-22.12c-0.21-0.57,0.09-0.86,0.65-0.64l20.36,8.06l0,0l0,0
		l1.63-3.75l3.64-8.38c0.24-0.56,0.65-0.57,0.91-0.01l4.36,9.34l3.56,7.63l0.25,0.53c0.1,0.21,0.02,0.49-0.17,0.62c0,0,0,0,0,0
		l-7.77,5.45L40.91,64.09C40.62,64.29,40.28,64.18,40.16,63.85z"/>
	<path class="st1" d="M45,15c-16.57,0-30,13.43-30,30s13.43,30,30,30s30-13.43,30-30S61.57,15,45,15z M45,72.5
		c-15.16,0-27.5-12.34-27.5-27.5c0-15.16,12.34-27.5,27.5-27.5S72.5,29.84,72.5,45C72.5,60.16,60.16,72.5,45,72.5z"/>
	<path class="st2" d="M64.45,46.37l-3.56-7.63l-4.36-9.34c-0.26-0.55-0.67-0.55-0.91,0.01l-3.64,8.38l-1.63,3.75l13,5.14
		C64.3,47.05,64.87,47.26,64.45,46.37z"/>
	<polygon class="st2" points="64.53,47.52 64.53,47.52 56.76,52.96 	"/>
	<path class="st1" d="M40.91,64.09l15.85-11.12l7.77-5.45c0.19-0.13,0.26-0.41,0.17-0.62l-0.25-0.53c0.42,0.9-0.15,0.68-1.1,0.31
		l-13-5.14l0,0l0,0l-20.36-8.06c-0.57-0.23-0.86,0.06-0.65,0.64l8.05,22.12l2.77,7.62C40.28,64.18,40.62,64.29,40.91,64.09z"/>
</g>
</svg>
