<svg width="549" height="550" xmlns="http://www.w3.org/2000/svg" xmlns:xlink="http://www.w3.org/1999/xlink" xml:space="preserve" overflow="hidden"><defs><clipPath id="clip0"><rect x="1837" y="749" width="549" height="550"/></clipPath><clipPath id="clip1"><rect x="1894" y="806" width="435" height="436"/></clipPath><clipPath id="clip2"><rect x="1894" y="806" width="435" height="436"/></clipPath><clipPath id="clip3"><rect x="1894" y="806" width="435" height="436"/></clipPath><clipPath id="clip4"><rect x="1899" y="806" width="425" height="436"/></clipPath><linearGradient x1="1836.6" y1="749.605" x2="2386.4" y2="1298.4" gradientUnits="userSpaceOnUse" spreadMethod="reflect" id="stroke5"><stop offset="0" stop-color="#8CDEA6"/><stop offset="0.00952381" stop-color="#8BDDA5"/><stop offset="0.0190476" stop-color="#8BDDA5"/><stop offset="0.0285714" stop-color="#8BDDA5"/><stop offset="0.0380952" stop-color="#8BDDA5"/><stop offset="0.047619" stop-color="#8BDDA5"/><stop offset="0.0571429" stop-color="#8BDDA5"/><stop offset="0.0666667" stop-color="#8BDDA5"/><stop offset="0.0761905" stop-color="#8BDDA5"/><stop offset="0.0857143" stop-color="#8ADDA5"/><stop offset="0.0952381" stop-color="#8ADDA5"/><stop offset="0.104762" stop-color="#8ADDA4"/><stop offset="0.114286" stop-color="#8ADDA4"/><stop offset="0.12381" stop-color="#89DDA4"/><stop offset="0.133333" stop-color="#89DDA4"/><stop offset="0.142857" stop-color="#89DDA4"/><stop offset="0.152381" stop-color="#88DDA3"/><stop offset="0.161905" stop-color="#88DCA3"/><stop offset="0.171429" stop-color="#88DCA3"/><stop offset="0.180952" stop-color="#87DCA2"/><stop offset="0.190476" stop-color="#87DCA2"/><stop offset="0.2" stop-color="#86DCA2"/><stop offset="0.209524" stop-color="#86DCA1"/><stop offset="0.219048" stop-color="#85DCA1"/><stop offset="0.228571" stop-color="#85DCA1"/><stop offset="0.238095" stop-color="#84DBA0"/><stop offset="0.247619" stop-color="#84DBA0"/><stop offset="0.257143" stop-color="#83DBA0"/><stop offset="0.266667" stop-color="#83DB9F"/><stop offset="0.27619" stop-color="#82DB9F"/><stop offset="0.285714" stop-color="#81DB9E"/><stop offset="0.295238" stop-color="#81DA9E"/><stop offset="0.304762" stop-color="#80DA9D"/><stop offset="0.314286" stop-color="#7FDA9D"/><stop offset="0.32381" stop-color="#7FDA9C"/><stop offset="0.333333" stop-color="#7EDA9C"/><stop offset="0.342857" stop-color="#7DD99B"/><stop offset="0.352381" stop-color="#7DD99B"/><stop offset="0.361905" stop-color="#7CD99A"/><stop offset="0.371429" stop-color="#7BD99A"/><stop offset="0.380952" stop-color="#7AD899"/><stop offset="0.390476" stop-color="#79D898"/><stop offset="0.4" stop-color="#78D898"/><stop offset="0.409524" stop-color="#78D897"/><stop offset="0.419048" stop-color="#77D797"/><stop offset="0.428571" stop-color="#76D796"/><stop offset="0.438095" stop-color="#75D795"/><stop offset="0.447619" stop-color="#74D795"/><stop offset="0.457143" stop-color="#73D694"/><stop offset="0.466667" stop-color="#72D693"/><stop offset="0.47619" stop-color="#71D693"/><stop offset="0.485714" stop-color="#70D592"/><stop offset="0.495238" stop-color="#6FD591"/><stop offset="0.504762" stop-color="#6ED590"/><stop offset="0.514286" stop-color="#6DD590"/><stop offset="0.52381" stop-color="#6CD48F"/><stop offset="0.533333" stop-color="#6BD48E"/><stop offset="0.542857" stop-color="#6AD48D"/><stop offset="0.552381" stop-color="#69D38D"/><stop offset="0.561905" stop-color="#68D38C"/><stop offset="0.571429" stop-color="#66D38B"/><stop offset="0.580952" stop-color="#65D28A"/><stop offset="0.590476" stop-color="#64D289"/><stop offset="0.6" stop-color="#63D288"/><stop offset="0.609524" stop-color="#62D187"/><stop offset="0.619048" stop-color="#60D187"/><stop offset="0.628571" stop-color="#5FD186"/><stop offset="0.638095" stop-color="#5ED085"/><stop offset="0.647619" stop-color="#5DD084"/><stop offset="0.657143" stop-color="#5BCF83"/><stop offset="0.666667" stop-color="#5ACF82"/><stop offset="0.67619" stop-color="#59CF81"/><stop offset="0.685714" stop-color="#57CE80"/><stop offset="0.695238" stop-color="#56CE7F"/><stop offset="0.704762" stop-color="#54CD7E"/><stop offset="0.714286" stop-color="#53CD7D"/><stop offset="0.72381" stop-color="#52CD7C"/><stop offset="0.733333" stop-color="#50CC7B"/><stop offset="0.742857" stop-color="#4FCC7A"/><stop offset="0.752381" stop-color="#4DCB79"/><stop offset="0.761905" stop-color="#4CCB78"/><stop offset="0.771429" stop-color="#4ACA77"/><stop offset="0.780952" stop-color="#49CA76"/><stop offset="0.790476" stop-color="#47CA75"/><stop offset="0.8" stop-color="#46C973"/><stop offset="0.809524" stop-color="#44C972"/><stop offset="0.819048" stop-color="#43C871"/><stop offset="0.828571" stop-color="#41C870"/><stop offset="0.838095" stop-color="#3FC76F"/><stop offset="0.847619" stop-color="#3EC76E"/><stop offset="0.857143" stop-color="#3CC66D"/><stop offset="0.866667" stop-color="#3AC66B"/><stop offset="0.87619" stop-color="#39C56A"/><stop offset="0.885714" stop-color="#37C569"/><stop offset="0.895238" stop-color="#35C468"/><stop offset="0.904762" stop-color="#34C467"/><stop offset="0.914286" stop-color="#32C365"/><stop offset="0.92381" stop-color="#30C364"/><stop offset="0.933333" stop-color="#2EC263"/><stop offset="0.942857" stop-color="#2DC261"/><stop offset="0.952381" stop-color="#2BC160"/><stop offset="0.961905" stop-color="#29C15F"/><stop offset="0.971429" stop-color="#27C05E"/><stop offset="0.980952" stop-color="#25C05C"/><stop offset="0.990476" stop-color="#23BF5B"/><stop offset="1" stop-color="#22BF5A"/></linearGradient></defs><g clip-path="url(#clip0)" transform="translate(-1837 -749)"><g clip-path="url(#clip1)"><g clip-path="url(#clip2)"><g clip-path="url(#clip3)"><g clip-path="url(#clip4)"><path d="M217.5 0C334.687 0 429.695 95.0082 429.695 212.195 429.695 329.382 334.682 424.39 217.5 424.39 100.317 424.39 5.30488 329.407 5.30488 212.195 5.30488 94.9827 100.3 0 217.5 0Z" fill="#53AE94" transform="matrix(1 0 0 1.02736 1894 806)"/><path d="M243.689 183.922 243.689 152.356 315.874 152.356 315.874 104.26 119.313 104.26 119.313 152.356 191.506 152.356 191.506 183.897C132.834 186.592 88.7188 198.211 88.7188 212.131 88.7188 226.051 132.855 237.671 191.506 240.383L191.506 341.494 243.706 341.494 243.706 240.375C302.272 237.671 346.298 226.06 346.298 212.153 346.298 198.245 302.272 186.634 243.706 183.931L243.689 183.922ZM243.706 231.81 243.706 231.785C242.233 231.878 234.666 232.332 217.818 232.332 204.348 232.332 194.871 231.95 191.531 231.776L191.531 231.819C139.696 229.523 101.005 220.496 101.005 209.695 101.005 198.895 139.701 189.881 191.531 187.58L191.531 222.826C194.927 223.059 204.637 223.632 218.039 223.632 234.136 223.632 242.229 222.962 243.714 222.826L243.714 187.58C295.448 189.885 334.05 198.92 334.05 209.683 334.05 220.445 295.431 229.485 243.714 231.789" fill="#FFFFFF" transform="matrix(1 0 0 1.02736 1894 806)"/></g></g></g></g><path d="M1852 1024C1852 880.406 1968.18 764 2111.5 764 2254.82 764 2371 880.406 2371 1024 2371 1167.59 2254.82 1284 2111.5 1284 1968.18 1284 1852 1167.59 1852 1024Z" stroke="url(#stroke5)" stroke-width="29.7917" stroke-miterlimit="8" fill="none" fill-rule="evenodd"/></g></svg>