<svg viewBox="0 0 200 200" fill="none" xmlns="http://www.w3.org/2000/svg">
<circle cx="100" cy="100" r="97.5" stroke="#00A08E" stroke-width="5"/>
<path fill-rule="evenodd" clip-rule="evenodd" d="M179.804 94.3541C179.221 92.5308 178.367 90.9254 177.239 89.538C176.074 88.0353 174.633 86.87 172.915 86.042C171.198 85.214 169.235 84.8 167.027 84.8H156.033C155.236 84.8 154.561 85.076 154.009 85.628C153.488 86.1493 153.227 86.8087 153.227 87.606V114.194C153.227 114.991 153.488 115.666 154.009 116.218C154.561 116.739 155.236 117 156.033 117H167.027C170.002 117 172.501 116.279 174.525 114.838C176.58 113.397 178.144 111.465 179.217 109.042C179.351 108.736 179.477 108.426 179.594 108.112C175.528 148.485 141.444 180 100 180C59.4419 180 25.933 149.818 20.708 110.69C21.1601 111.373 21.6608 112.02 22.21 112.63C23.6207 114.133 25.2767 115.313 27.178 116.172C29.0793 117.031 31.1647 117.46 33.434 117.46C35.7033 117.46 37.7887 117.031 39.69 116.172C41.622 115.313 43.278 114.133 44.658 112.63C46.0687 111.097 47.1573 109.333 47.924 107.34C48.6907 105.347 49.074 103.2 49.074 100.9C49.074 98.6 48.6907 96.4533 47.924 94.46C47.1573 92.4667 46.0687 90.7187 44.658 89.216C43.278 87.6827 41.622 86.4867 39.69 85.628C37.7887 84.7693 35.7033 84.34 33.434 84.34C31.1647 84.34 29.0793 84.7693 27.178 85.628C25.2767 86.4867 23.6207 87.6827 22.21 89.216C21.5508 89.9338 20.9615 90.7076 20.4423 91.5374C24.6693 51.3328 58.6756 20 100 20C142.285 20 176.907 52.8058 179.804 94.3541ZM41.852 95.334C42.68 96.99 43.094 98.8453 43.094 100.9C43.094 102.955 42.68 104.825 41.852 106.512C41.024 108.168 39.8893 109.487 38.448 110.468C37.0067 111.449 35.3353 111.94 33.434 111.94C31.5327 111.94 29.8613 111.449 28.42 110.468C26.9787 109.487 25.844 108.168 25.016 106.512C24.2187 104.825 23.82 102.955 23.82 100.9C23.82 98.8147 24.2187 96.944 25.016 95.288C25.844 93.632 26.9787 92.3133 28.42 91.332C29.8613 90.3507 31.5327 89.86 33.434 89.86C35.3353 89.86 37.0067 90.3507 38.448 91.332C39.8893 92.3133 41.024 93.6473 41.852 95.334ZM75.3303 86.87C73.889 85.49 71.6963 84.8 68.7523 84.8H57.1603C56.363 84.8 55.6883 85.076 55.1363 85.628C54.615 86.1493 54.3543 86.8087 54.3543 87.606V114.194C54.3543 114.991 54.615 115.666 55.1363 116.218C55.6883 116.739 56.363 117 57.1603 117H68.6143C69.749 117 70.9296 116.877 72.1563 116.632C73.383 116.356 74.533 115.865 75.6063 115.16C76.6796 114.455 77.5383 113.458 78.1823 112.17C78.857 110.882 79.1943 109.226 79.1943 107.202C79.1943 105.362 78.811 103.859 78.0443 102.694C77.3083 101.498 76.3576 100.578 75.1923 99.934C74.6924 99.6367 74.1835 99.3812 73.6658 99.1673C74.8687 98.5712 75.7916 97.7841 76.4343 96.806C77.1396 95.702 77.4923 94.4293 77.4923 92.988C77.4923 90.2893 76.7716 88.25 75.3303 86.87ZM60.3343 90.228H67.9243C68.9976 90.228 69.8563 90.5347 70.5003 91.148C71.175 91.7307 71.5123 92.6813 71.5123 94C71.5123 95.104 71.1596 95.9473 70.4543 96.53C69.749 97.1127 68.9516 97.404 68.0623 97.404H60.3343V90.228ZM60.3343 102.832H68.2923C68.9363 102.832 69.6416 102.909 70.4083 103.062C71.175 103.215 71.8343 103.599 72.3863 104.212C72.9383 104.825 73.2143 105.822 73.2143 107.202C73.2143 108.705 72.8003 109.839 71.9723 110.606C71.1443 111.342 70.025 111.71 68.6143 111.71H60.3343V102.832ZM112.971 107.34C113.738 105.347 114.121 103.2 114.121 100.9C114.121 98.6 113.738 96.4533 112.971 94.46C112.204 92.4667 111.116 90.7187 109.705 89.216C108.325 87.6827 106.669 86.4867 104.737 85.628C102.836 84.7693 100.75 84.34 98.4809 84.34C96.2115 84.34 94.1262 84.7693 92.2249 85.628C90.3235 86.4867 88.6675 87.6827 87.2569 89.216C85.8769 90.7187 84.8035 92.4667 84.0369 94.46C83.2702 96.4533 82.8869 98.6 82.8869 100.9C82.8869 103.2 83.2702 105.347 84.0369 107.34C84.8035 109.333 85.8769 111.097 87.2569 112.63C88.6675 114.133 90.3235 115.313 92.2249 116.172C94.1262 117.031 96.2115 117.46 98.4809 117.46C100.75 117.46 102.836 117.031 104.737 116.172C106.669 115.313 108.325 114.133 109.705 112.63C111.116 111.097 112.204 109.333 112.971 107.34ZM106.899 95.334C107.727 96.99 108.141 98.8453 108.141 100.9C108.141 102.955 107.727 104.825 106.899 106.512C106.071 108.168 104.936 109.487 103.495 110.468C102.054 111.449 100.382 111.94 98.4809 111.94C96.5795 111.94 94.9082 111.449 93.4669 110.468C92.0255 109.487 90.8909 108.168 90.0629 106.512C89.2655 104.825 88.8669 102.955 88.8669 100.9C88.8669 98.8147 89.2655 96.944 90.0629 95.288C90.8909 93.632 92.0255 92.3133 93.4669 91.332C94.9082 90.3507 96.5795 89.86 98.4809 89.86C100.382 89.86 102.054 90.3507 103.495 91.332C104.936 92.3133 106.071 93.6473 106.899 95.334ZM145.621 85.536C145.161 85.0453 144.563 84.8 143.827 84.8C143.061 84.8 142.447 85.0453 141.987 85.536C141.527 86.0267 141.297 86.64 141.297 87.376V107.17L124.553 85.812C124.339 85.4747 124.001 85.2293 123.541 85.076C123.081 84.892 122.637 84.8 122.207 84.8C121.41 84.8 120.735 85.076 120.183 85.628C119.662 86.1493 119.401 86.8087 119.401 87.606V114.424C119.401 115.16 119.631 115.773 120.091 116.264C120.551 116.755 121.149 117 121.885 117C122.652 117 123.265 116.755 123.725 116.264C124.216 115.773 124.461 115.16 124.461 114.424V94.7826L141.343 116.218C141.558 116.463 141.865 116.663 142.263 116.816C142.693 116.939 143.107 117 143.505 117C144.303 117 144.962 116.739 145.483 116.218C146.035 115.666 146.311 114.991 146.311 114.194V87.376C146.311 86.64 146.081 86.0267 145.621 85.536ZM171.305 110.238C170.079 111.219 168.499 111.71 166.567 111.71H158.977V90.09H166.567C168.009 90.09 169.251 90.3813 170.293 90.964C171.336 91.5467 172.195 92.344 172.869 93.356C173.544 94.3373 174.035 95.4873 174.341 96.806C174.679 98.094 174.847 99.4587 174.847 100.9C174.847 102.832 174.556 104.626 173.973 106.282C173.421 107.907 172.532 109.226 171.305 110.238Z" fill="#00A08E"/>
</svg>
