<svg width="76" height="76" viewBox="0 0 76 76" fill="none" xmlns="http://www.w3.org/2000/svg">
<rect width="76" height="76" fill="#090909"/>
<path d="M17.9998 38L8 38L8 48.0002L17.9998 48.0002L17.9998 38Z" fill="#74E7BF"/>
<path d="M8.00017 58L18 58L18 68.0002L8.00017 68.0002L8.00017 58Z" fill="#74E7BF"/>
<path d="M8.00017 48L18 48L18 58.0002L8.00017 58.0002L8.00017 48Z" fill="#74E7BF"/>
<path d="M17.9998 28L8 28L8 38.0002L17.9998 38.0002L17.9998 28Z" fill="#74E7BF"/>
<path d="M17.9998 18L8 18L8 28.0002L17.9998 28.0002L17.9998 18Z" fill="#74E7BF"/>
<path d="M17.9998 8L8 8L8 18.0002L17.9998 18.0002L17.9998 8Z" fill="#74E7BF"/>
<path d="M27.9998 18L18 18L18 28.0002L27.9998 28.0002L27.9998 18Z" fill="#74E7BF"/>
<path d="M37.9998 28L28 28L28 38.0002L37.9998 38.0002L37.9998 28Z" fill="#74E7BF"/>
<path d="M47.9998 38L38 38L38 48.0002L47.9998 48.0002L47.9998 38Z" fill="#74E7BF"/>
<path d="M57.9998 48L48 48L48 58.0002L57.9998 58.0002L57.9998 48Z" fill="#74E7BF"/>
<path d="M67.9998 58L58 58L58 68.0002L67.9998 68.0002L67.9998 58Z" fill="#74E7BF"/>
<path d="M67.9998 48L58 48L58 58.0002L67.9998 58.0002L67.9998 48Z" fill="#74E7BF"/>
<path d="M67.9998 38L58 38L58 48.0002L67.9998 48.0002L67.9998 38Z" fill="#74E7BF"/>
<path d="M67.9998 28L58 28L58 38.0002L67.9998 38.0002L67.9998 28Z" fill="#74E7BF"/>
<path d="M67.9998 18L58 18L58 28.0002L67.9998 28.0002L67.9998 18Z" fill="#74E7BF"/>
<path d="M67.9998 8L58 8L58 18.0002L67.9998 18.0002L67.9998 8Z" fill="#74E7BF"/>
</svg>
