<svg width="57" height="82" viewBox="0 0 57 82" fill="none" xmlns="http://www.w3.org/2000/svg">
<circle cx="28.5" cy="40.5" r="25.5" fill="#0C2246"/>
<path d="M28.5083 68.44C43.8683 68.44 56.3483 55.96 56.3483 40.6C56.3483 25.24 43.8683 12.76 28.5083 12.76C13.1483 12.76 0.66825 25.24 0.66825 40.6C0.66825 55.96 13.1483 68.44 28.5083 68.44ZM28.5083 55.32L13.5963 40.344L17.1163 36.76L28.5083 48.024L39.8363 36.76L43.4203 40.344L28.5083 55.32ZM28.5083 43.864L19.2283 34.712L22.8763 31.128L28.5083 36.824L34.1403 31.128L37.7882 34.712L28.5083 43.864ZM28.5083 32.728L24.9243 28.952L28.5083 25.432L32.0923 28.952L28.5083 32.728Z" fill="#5DEB5A"/>
</svg>
