<svg viewBox="0 0 200 200" fill="none" xmlns="http://www.w3.org/2000/svg">
<circle cx="100" cy="100" r="97.5" stroke="#FE8A71" stroke-width="5"/>
<path fill-rule="evenodd" clip-rule="evenodd" d="M178.363 116.18C179.436 110.954 180 105.543 180 100C180 55.8172 144.183 20 100 20C57.9154 20 23.4207 52.4962 20.2394 93.765C20.5077 92.7559 20.8279 91.7676 21.2 90.8C22.5333 87.3333 24.4 84.2933 26.8 81.68C29.2533 79.0133 32.1333 76.9333 35.44 75.44C38.7467 73.9467 42.3733 73.2 46.32 73.2C50.2667 73.2 53.8933 73.9467 57.2 75.44C60.56 76.9333 63.44 79.0133 65.84 81.68C68.2933 84.2933 70.1867 87.3333 71.52 90.8C72.8533 94.2667 73.52 98 73.52 102C73.52 106 72.8533 109.733 71.52 113.2C70.1867 116.667 68.2933 119.733 65.84 122.4C63.44 125.013 60.56 127.067 57.2 128.56C53.8933 130.053 50.2667 130.8 46.32 130.8C42.3733 130.8 38.7467 130.053 35.44 128.56C32.1333 127.067 29.2533 125.013 26.8 122.4C24.4 119.733 22.5333 116.667 21.2 113.2C21.1296 113.017 21.061 112.833 20.9942 112.648C27.0574 150.821 60.1212 180 100 180C133.866 180 162.817 158.957 174.491 129.233C173.901 128.681 173.426 127.977 173.065 127.12L168.911 117.44H145.055L140.905 127.2C140.532 128.213 139.945 129.013 139.145 129.6C138.398 130.133 137.572 130.4 136.665 130.4C135.225 130.4 134.158 130 133.465 129.2C132.772 128.4 132.425 127.413 132.425 126.24C132.425 125.76 132.505 125.253 132.665 124.72L152.585 76.88C153.012 75.8133 153.652 74.9867 154.505 74.4C155.412 73.8133 156.372 73.5733 157.385 73.68C158.345 73.68 159.225 73.9733 160.025 74.56C160.878 75.0933 161.492 75.8667 161.865 76.88L178.363 116.18ZM148.967 108.24L156.928 89.5166L164.963 108.24H148.967ZM60.96 92.32C62.4 95.2 63.12 98.4267 63.12 102C63.12 105.573 62.4 108.827 60.96 111.76C59.52 114.64 57.5467 116.933 55.04 118.64C52.5333 120.347 49.6267 121.2 46.32 121.2C43.0133 121.2 40.1067 120.347 37.6 118.64C35.0933 116.933 33.12 114.64 31.68 111.76C30.2933 108.827 29.6 105.573 29.6 102C29.6 98.3733 30.2933 95.12 31.68 92.24C33.12 89.36 35.0933 87.0667 37.6 85.36C40.1067 83.6533 43.0133 82.8 46.32 82.8C49.6267 82.8 52.5333 83.6533 55.04 85.36C57.5467 87.0667 59.52 89.3867 60.96 92.32ZM84.4631 128.64C85.6365 129.547 86.9698 130 88.4631 130C89.7965 130 90.8365 129.547 91.5831 128.64C92.3298 127.68 92.7031 126.507 92.7031 125.12V109.6H107.663C108.89 109.6 109.956 109.76 110.863 110.08C111.77 110.347 112.516 110.773 113.103 111.36C113.69 111.893 114.143 112.56 114.463 113.36C114.783 114.107 114.943 114.933 114.943 115.84C114.943 118.613 115.21 120.88 115.743 122.64C116.33 124.4 117.076 125.813 117.983 126.88C118.89 127.893 119.796 128.667 120.703 129.2C121.29 129.52 122.036 129.787 122.943 130C123.85 130.16 124.756 130.16 125.663 130C126.57 129.787 127.316 129.333 127.903 128.64C128.81 127.627 129.103 126.48 128.783 125.2C128.516 123.867 127.796 122.853 126.623 122.16C125.93 121.787 125.45 121.253 125.183 120.56C124.97 119.867 124.81 119.013 124.703 118C124.65 116.987 124.516 115.813 124.303 114.48C124.196 113.04 123.85 111.707 123.263 110.48C122.73 109.2 121.956 108.027 120.943 106.96C120.332 106.247 119.612 105.598 118.784 105.015C119.912 104.28 120.951 103.382 121.903 102.32C123.343 100.773 124.463 99.04 125.263 97.12C126.116 95.2 126.543 93.2267 126.543 91.2C126.543 87.84 125.796 84.88 124.303 82.32C122.81 79.7067 120.836 77.68 118.383 76.24C115.983 74.7467 113.396 74 110.623 74H87.5831C86.1965 74 85.0231 74.48 84.0631 75.44C83.1565 76.3467 82.7031 77.4933 82.7031 78.88V125.12C82.7031 126.507 83.2898 127.68 84.4631 128.64ZM92.7031 101.36H110.223C111.183 101.36 112.116 100.933 113.023 100.08C113.93 99.1733 114.676 97.9733 115.263 96.48C115.85 94.9333 116.143 93.2533 116.143 91.44C116.143 89.0933 115.503 87.1467 114.223 85.6C112.996 84 111.663 83.2 110.223 83.2H92.7031V101.36Z" fill="#FE8A71"/>
</svg>
