<svg viewBox="0 0 200 200" fill="none" xmlns="http://www.w3.org/2000/svg">
<circle cx="100" cy="100" r="97.5" stroke="#F6CD61" stroke-width="5"/>
<path fill-rule="evenodd" clip-rule="evenodd" d="M179.216 111.247C179.733 107.572 180 103.817 180 100C180 97.0537 179.841 94.1447 179.53 91.2809C179.236 91.3803 178.912 91.43 178.557 91.43H167.175V98.57H176.667C177.395 98.57 177.997 98.808 178.473 99.284C178.977 99.732 179.229 100.32 179.229 101.048C179.229 101.748 178.977 102.322 178.473 102.77C177.997 103.19 177.395 103.4 176.667 103.4H167.175V111.17H178.557C178.79 111.17 179.009 111.196 179.216 111.247ZM178.4 116H164.487C163.759 116 163.143 115.762 162.639 115.286C162.163 114.782 161.925 114.166 161.925 113.438V89.162C161.925 88.434 162.163 87.832 162.639 87.356C163.143 86.852 163.759 86.6 164.487 86.6H178.557C178.67 86.6 178.779 86.6057 178.886 86.617C172.517 48.8053 139.623 20 100 20C58.4237 20 24.2551 51.7159 20.3683 92.2734C20.7627 91.6946 21.1966 91.1475 21.67 90.632C22.958 89.232 24.47 88.14 26.206 87.356C27.942 86.572 29.846 86.18 31.918 86.18C33.99 86.18 35.894 86.572 37.63 87.356C39.394 88.14 40.906 89.232 42.166 90.632C43.454 92.004 44.448 93.6 45.148 95.42C45.848 97.24 46.198 99.2 46.198 101.3C46.198 103.4 45.848 105.36 45.148 107.18C44.448 109 43.454 110.61 42.166 112.01C40.906 113.382 39.394 114.46 37.63 115.244C35.894 116.028 33.99 116.42 31.918 116.42C29.846 116.42 27.942 116.028 26.206 115.244C24.47 114.46 22.958 113.382 21.67 112.01C21.3373 111.64 21.0242 111.256 20.7305 110.857C26.0285 149.904 59.4997 180 100 180C138.703 180 170.987 152.516 178.4 116ZM39.604 96.218C40.36 97.73 40.738 99.424 40.738 101.3C40.738 103.176 40.36 104.884 39.604 106.424C38.848 107.936 37.812 109.14 36.496 110.036C35.18 110.932 33.654 111.38 31.918 111.38C30.182 111.38 28.656 110.932 27.34 110.036C26.024 109.14 24.988 107.936 24.232 106.424C23.504 104.884 23.14 103.176 23.14 101.3C23.14 99.396 23.504 97.688 24.232 96.176C24.988 94.664 26.024 93.46 27.34 92.564C28.656 91.668 30.182 91.22 31.918 91.22C33.654 91.22 35.18 91.668 36.496 92.564C37.812 93.46 38.848 94.678 39.604 96.218ZM55.1772 115.706C56.7452 116.182 58.5092 116.42 60.4692 116.42C62.3732 116.42 64.1372 116.07 65.7612 115.37C67.4132 114.67 68.7432 113.662 69.7512 112.346C70.7592 111.03 71.2632 109.462 71.2632 107.642C71.2632 106.214 71.0532 105.01 70.6332 104.03C70.2132 103.022 69.5832 102.196 68.7432 101.552C67.9032 100.88 66.8392 100.334 65.5512 99.914C64.2912 99.494 62.8212 99.13 61.1412 98.822C59.8532 98.57 58.7472 98.29 57.8232 97.982C56.8992 97.646 56.1852 97.212 55.6812 96.68C55.2052 96.12 54.9672 95.42 54.9672 94.58C54.9672 93.88 55.1772 93.264 55.5972 92.732C56.0172 92.2 56.6332 91.78 57.4452 91.472C58.2852 91.164 59.3072 91.01 60.5112 91.01C61.2392 91.01 62.0232 91.136 62.8632 91.388C63.7032 91.612 64.5012 91.906 65.2572 92.27C66.0132 92.606 66.6152 92.97 67.0632 93.362C67.3992 93.614 67.7772 93.74 68.1972 93.74C68.8412 93.74 69.4012 93.488 69.8772 92.984C70.3532 92.48 70.5912 91.92 70.5912 91.304C70.5912 90.464 70.1852 89.722 69.3732 89.078C68.3932 88.238 67.1192 87.552 65.5512 87.02C64.0112 86.46 62.3312 86.18 60.5112 86.18C58.5792 86.18 56.8152 86.516 55.2192 87.188C53.6232 87.86 52.3492 88.84 51.3972 90.128C50.4732 91.416 50.0112 92.97 50.0112 94.79C50.0112 95.994 50.2072 97.086 50.5992 98.066C50.9912 99.018 51.5652 99.858 52.3212 100.586C53.1052 101.286 54.0712 101.874 55.2192 102.35C56.3672 102.798 57.6972 103.134 59.2092 103.358C60.8052 103.582 62.1212 103.904 63.1572 104.324C64.1932 104.716 64.9632 105.206 65.4672 105.794C65.9712 106.382 66.2232 107.096 66.2232 107.936C66.2232 108.636 65.9572 109.266 65.4252 109.826C64.8932 110.358 64.1932 110.792 63.3252 111.128C62.4572 111.436 61.5052 111.59 60.4692 111.59C58.9292 111.59 57.6272 111.366 56.5632 110.918C55.5272 110.47 54.4772 109.812 53.4132 108.944C52.9932 108.608 52.5172 108.44 51.9852 108.44C51.2852 108.44 50.6972 108.692 50.2212 109.196C49.7732 109.672 49.5492 110.232 49.5492 110.876C49.5492 111.268 49.6472 111.66 49.8432 112.052C50.0392 112.444 50.3192 112.794 50.6832 113.102C52.1112 114.334 53.6092 115.202 55.1772 115.706ZM80.5317 87.356C80.0277 86.852 79.4397 86.6 78.7677 86.6C77.9837 86.6 77.3397 86.852 76.8357 87.356C76.3317 87.832 76.0797 88.434 76.0797 89.162V113.438C76.0797 114.166 76.3177 114.782 76.7937 115.286C77.2697 115.762 77.8997 116 78.6837 116C79.3837 116 79.9997 115.762 80.5317 115.286C81.0637 114.782 81.3297 114.166 81.3297 113.438V103.652H94.7277V113.438C94.7277 114.166 94.9797 114.782 95.4837 115.286C96.0157 115.762 96.6177 116 97.2897 116C98.1017 116 98.7457 115.762 99.2217 115.286C99.7257 114.782 99.9777 114.166 99.9777 113.438V89.162C99.9777 88.434 99.7397 87.832 99.2637 87.356C98.7877 86.852 98.1577 86.6 97.3737 86.6C96.6737 86.6 96.0577 86.852 95.5257 87.356C94.9937 87.832 94.7277 88.434 94.7277 89.162V98.822H81.3297V89.162C81.3297 88.434 81.0637 87.832 80.5317 87.356ZM116.401 94.7462L112.222 104.576H120.62L116.401 94.7462ZM107.989 114.53L110.168 109.406H122.692L124.873 114.488C125.097 115.02 125.405 115.44 125.797 115.748C126.217 116.056 126.679 116.21 127.183 116.21C127.771 116.21 128.303 115.986 128.779 115.538C129.283 115.09 129.535 114.488 129.535 113.732C129.535 113.424 129.465 113.088 129.325 112.724L118.993 88.112C118.797 87.58 118.475 87.174 118.027 86.894C117.607 86.586 117.145 86.432 116.641 86.432C116.109 86.376 115.605 86.502 115.129 86.81C114.681 87.118 114.345 87.552 114.121 88.112L103.663 113.228C103.579 113.508 103.537 113.774 103.537 114.026C103.537 114.642 103.719 115.16 104.083 115.58C104.447 116 105.007 116.21 105.763 116.21C106.239 116.21 106.673 116.07 107.065 115.79C107.485 115.482 107.793 115.062 107.989 114.53ZM134.015 115.286C134.631 115.762 135.331 116 136.115 116C136.815 116 137.361 115.762 137.753 115.286C138.145 114.782 138.341 114.166 138.341 113.438V105.29H146.195C146.839 105.29 147.399 105.374 147.875 105.542C148.351 105.682 148.743 105.906 149.051 106.214C149.359 106.494 149.597 106.844 149.765 107.264C149.933 107.656 150.017 108.09 150.017 108.566C150.017 110.022 150.157 111.212 150.437 112.136C150.745 113.06 151.137 113.802 151.613 114.362C152.089 114.894 152.565 115.3 153.041 115.58C153.349 115.748 153.741 115.888 154.217 116C154.693 116.084 155.169 116.084 155.645 116C156.121 115.888 156.513 115.65 156.821 115.286C157.297 114.754 157.451 114.152 157.283 113.48C157.143 112.78 156.765 112.248 156.149 111.884C155.785 111.688 155.533 111.408 155.393 111.044C155.281 110.68 155.197 110.232 155.141 109.7C155.113 109.168 155.043 108.552 154.931 107.852C154.875 107.096 154.693 106.396 154.385 105.752C154.105 105.08 153.699 104.464 153.167 103.904C152.846 103.529 152.469 103.189 152.034 102.883C152.626 102.497 153.172 102.025 153.671 101.468C154.427 100.656 155.015 99.746 155.435 98.738C155.883 97.73 156.107 96.694 156.107 95.63C156.107 93.866 155.715 92.312 154.931 90.968C154.147 89.596 153.111 88.532 151.823 87.776C150.563 86.992 149.205 86.6 147.749 86.6H135.653C134.925 86.6 134.309 86.852 133.805 87.356C133.329 87.832 133.091 88.434 133.091 89.162V113.438C133.091 114.166 133.399 114.782 134.015 115.286ZM138.341 100.964H147.539C148.043 100.964 148.533 100.74 149.009 100.292C149.485 99.816 149.877 99.186 150.185 98.402C150.493 97.59 150.647 96.708 150.647 95.756C150.647 94.524 150.311 93.502 149.639 92.69C148.995 91.85 148.295 91.43 147.539 91.43H138.341V100.964Z" fill="#F6CD61"/>
</svg>
